<mxfile host="app.diagrams.net" modified="2022-02-07T10:22:28.604Z" agent="5.0 (Windows NT 10.0; Win64; x64) AppleWebKit/537.36 (KHTML, like Gecko) Chrome/98.0.4758.80 Safari/537.36 Edg/98.0.1108.43" etag="fapTvgtCOH3iqdHbosQb" version="16.4.7" type="github">
  <diagram id="RRJbztCQPEPihStisISK" name="Page-1">
    <mxGraphModel dx="1497" dy="1663" grid="1" gridSize="10" guides="1" tooltips="1" connect="1" arrows="1" fold="1" page="1" pageScale="1" pageWidth="1169" pageHeight="827" math="0" shadow="0">
      <root>
        <mxCell id="0" />
        <mxCell id="1" parent="0" />
        <mxCell id="45sW45CUn1RWTs3-UtLl-21" value="authenticate" style="ellipse;whiteSpace=wrap;html=1;fillColor=#d5e8d4;strokeColor=#82b366;" vertex="1" parent="1">
          <mxGeometry x="640" y="260" width="130" height="80" as="geometry" />
        </mxCell>
        <mxCell id="45sW45CUn1RWTs3-UtLl-22" value="manager of member" style="ellipse;whiteSpace=wrap;html=1;fillColor=#d5e8d4;strokeColor=#82b366;" vertex="1" parent="1">
          <mxGeometry x="410" y="90" width="120" height="80" as="geometry" />
        </mxCell>
        <mxCell id="45sW45CUn1RWTs3-UtLl-23" value="manager a particular&lt;br&gt;article" style="ellipse;whiteSpace=wrap;html=1;fillColor=#d5e8d4;strokeColor=#82b366;" vertex="1" parent="1">
          <mxGeometry x="415" y="270" width="120" height="80" as="geometry" />
        </mxCell>
        <mxCell id="45sW45CUn1RWTs3-UtLl-24" value="manager of article" style="ellipse;whiteSpace=wrap;html=1;fillColor=#d5e8d4;strokeColor=#82b366;" vertex="1" parent="1">
          <mxGeometry x="410" y="470" width="120" height="80" as="geometry" />
        </mxCell>
        <mxCell id="45sW45CUn1RWTs3-UtLl-25" value="Web publishing authenticated system" style="ellipse;whiteSpace=wrap;html=1;fillColor=#d5e8d4;strokeColor=#82b366;" vertex="1" parent="1">
          <mxGeometry x="860" y="260" width="130" height="80" as="geometry" />
        </mxCell>
        <mxCell id="45sW45CUn1RWTs3-UtLl-34" value="remove member" style="ellipse;whiteSpace=wrap;html=1;" vertex="1" parent="1">
          <mxGeometry x="290" y="-20" width="90" height="50" as="geometry" />
        </mxCell>
        <mxCell id="45sW45CUn1RWTs3-UtLl-36" value="view article" style="ellipse;whiteSpace=wrap;html=1;" vertex="1" parent="1">
          <mxGeometry x="400" y="640" width="90" height="50" as="geometry" />
        </mxCell>
        <mxCell id="45sW45CUn1RWTs3-UtLl-37" value="add member&amp;nbsp;" style="ellipse;whiteSpace=wrap;html=1;" vertex="1" parent="1">
          <mxGeometry x="160" y="10" width="90" height="50" as="geometry" />
        </mxCell>
        <mxCell id="45sW45CUn1RWTs3-UtLl-38" value="" style="endArrow=none;html=1;rounded=0;entryX=1;entryY=1;entryDx=0;entryDy=0;exitX=0;exitY=0.5;exitDx=0;exitDy=0;" edge="1" parent="1" source="45sW45CUn1RWTs3-UtLl-22" target="45sW45CUn1RWTs3-UtLl-37">
          <mxGeometry width="50" height="50" relative="1" as="geometry">
            <mxPoint x="230" y="120" as="sourcePoint" />
            <mxPoint x="280" y="70" as="targetPoint" />
          </mxGeometry>
        </mxCell>
        <mxCell id="45sW45CUn1RWTs3-UtLl-39" value="" style="endArrow=none;html=1;rounded=0;entryX=1;entryY=1;entryDx=0;entryDy=0;exitX=0;exitY=0;exitDx=0;exitDy=0;" edge="1" parent="1" source="45sW45CUn1RWTs3-UtLl-22" target="45sW45CUn1RWTs3-UtLl-34">
          <mxGeometry width="50" height="50" relative="1" as="geometry">
            <mxPoint x="360" y="80" as="sourcePoint" />
            <mxPoint x="410" y="30" as="targetPoint" />
          </mxGeometry>
        </mxCell>
        <mxCell id="45sW45CUn1RWTs3-UtLl-48" value="" style="endArrow=classic;html=1;rounded=0;strokeColor=default;exitX=1;exitY=0.5;exitDx=0;exitDy=0;entryX=0;entryY=0.5;entryDx=0;entryDy=0;dashed=1;" edge="1" parent="1" source="45sW45CUn1RWTs3-UtLl-23" target="45sW45CUn1RWTs3-UtLl-21">
          <mxGeometry width="50" height="50" relative="1" as="geometry">
            <mxPoint x="590" y="330" as="sourcePoint" />
            <mxPoint x="640" y="280" as="targetPoint" />
          </mxGeometry>
        </mxCell>
        <mxCell id="45sW45CUn1RWTs3-UtLl-49" value="" style="endArrow=classic;html=1;rounded=0;dashed=1;strokeColor=default;entryX=0;entryY=0;entryDx=0;entryDy=0;exitX=1;exitY=1;exitDx=0;exitDy=0;" edge="1" parent="1" source="45sW45CUn1RWTs3-UtLl-22" target="45sW45CUn1RWTs3-UtLl-21">
          <mxGeometry width="50" height="50" relative="1" as="geometry">
            <mxPoint x="530" y="190" as="sourcePoint" />
            <mxPoint x="580" y="140" as="targetPoint" />
          </mxGeometry>
        </mxCell>
        <mxCell id="45sW45CUn1RWTs3-UtLl-50" value="" style="endArrow=classic;html=1;rounded=0;dashed=1;strokeColor=default;entryX=0;entryY=1;entryDx=0;entryDy=0;exitX=1;exitY=0;exitDx=0;exitDy=0;" edge="1" parent="1" source="45sW45CUn1RWTs3-UtLl-24" target="45sW45CUn1RWTs3-UtLl-21">
          <mxGeometry width="50" height="50" relative="1" as="geometry">
            <mxPoint x="585" y="400" as="sourcePoint" />
            <mxPoint x="635" y="350" as="targetPoint" />
          </mxGeometry>
        </mxCell>
        <mxCell id="45sW45CUn1RWTs3-UtLl-54" value="view issue" style="ellipse;whiteSpace=wrap;html=1;" vertex="1" parent="1">
          <mxGeometry x="890" y="585" width="90" height="50" as="geometry" />
        </mxCell>
        <mxCell id="45sW45CUn1RWTs3-UtLl-55" value="view milestone" style="ellipse;whiteSpace=wrap;html=1;" vertex="1" parent="1">
          <mxGeometry x="665" y="610" width="90" height="50" as="geometry" />
        </mxCell>
        <mxCell id="45sW45CUn1RWTs3-UtLl-56" value="view member" style="ellipse;whiteSpace=wrap;html=1;" vertex="1" parent="1">
          <mxGeometry x="560" y="570" width="90" height="50" as="geometry" />
        </mxCell>
        <mxCell id="45sW45CUn1RWTs3-UtLl-57" value="complete issue" style="ellipse;whiteSpace=wrap;html=1;" vertex="1" parent="1">
          <mxGeometry x="780" y="620" width="90" height="50" as="geometry" />
        </mxCell>
        <mxCell id="45sW45CUn1RWTs3-UtLl-59" value="create new article" style="ellipse;whiteSpace=wrap;html=1;" vertex="1" parent="1">
          <mxGeometry x="290" y="610" width="90" height="50" as="geometry" />
        </mxCell>
        <mxCell id="45sW45CUn1RWTs3-UtLl-60" value="update article" style="ellipse;whiteSpace=wrap;html=1;" vertex="1" parent="1">
          <mxGeometry x="240" y="520" width="90" height="50" as="geometry" />
        </mxCell>
        <mxCell id="45sW45CUn1RWTs3-UtLl-63" style="edgeStyle=orthogonalEdgeStyle;rounded=0;orthogonalLoop=1;jettySize=auto;html=1;entryX=0.315;entryY=0.002;entryDx=0;entryDy=0;strokeColor=default;entryPerimeter=0;" edge="1" parent="1" source="45sW45CUn1RWTs3-UtLl-62" target="45sW45CUn1RWTs3-UtLl-21">
          <mxGeometry relative="1" as="geometry" />
        </mxCell>
        <mxCell id="45sW45CUn1RWTs3-UtLl-62" value="manager role" style="ellipse;whiteSpace=wrap;html=1;" vertex="1" parent="1">
          <mxGeometry x="620" y="110" width="120" height="80" as="geometry" />
        </mxCell>
        <mxCell id="45sW45CUn1RWTs3-UtLl-64" value="remove role" style="ellipse;whiteSpace=wrap;html=1;" vertex="1" parent="1">
          <mxGeometry x="670" y="25" width="90" height="50" as="geometry" />
        </mxCell>
        <mxCell id="45sW45CUn1RWTs3-UtLl-65" value="select role" style="ellipse;whiteSpace=wrap;html=1;direction=west;" vertex="1" parent="1">
          <mxGeometry x="760" y="80" width="90" height="50" as="geometry" />
        </mxCell>
        <mxCell id="45sW45CUn1RWTs3-UtLl-66" value="" style="endArrow=classic;html=1;rounded=0;strokeColor=default;entryX=1.007;entryY=0.588;entryDx=0;entryDy=0;entryPerimeter=0;exitX=1;exitY=0;exitDx=0;exitDy=0;dashed=1;" edge="1" parent="1" source="45sW45CUn1RWTs3-UtLl-65" target="45sW45CUn1RWTs3-UtLl-62">
          <mxGeometry width="50" height="50" relative="1" as="geometry">
            <mxPoint x="750" y="180" as="sourcePoint" />
            <mxPoint x="800" y="130" as="targetPoint" />
          </mxGeometry>
        </mxCell>
        <mxCell id="45sW45CUn1RWTs3-UtLl-67" value="" style="endArrow=classic;html=1;rounded=0;strokeColor=default;entryX=0.5;entryY=0;entryDx=0;entryDy=0;exitX=0.5;exitY=1;exitDx=0;exitDy=0;dashed=1;" edge="1" parent="1" source="45sW45CUn1RWTs3-UtLl-64" target="45sW45CUn1RWTs3-UtLl-62">
          <mxGeometry width="50" height="50" relative="1" as="geometry">
            <mxPoint x="630" y="120" as="sourcePoint" />
            <mxPoint x="680" y="70" as="targetPoint" />
          </mxGeometry>
        </mxCell>
        <mxCell id="45sW45CUn1RWTs3-UtLl-68" value="&amp;lt;&amp;lt;extend&amp;gt;&amp;gt;" style="text;html=1;align=center;verticalAlign=middle;resizable=0;points=[];autosize=1;strokeColor=none;fillColor=none;" vertex="1" parent="1">
          <mxGeometry x="750" y="140" width="80" height="20" as="geometry" />
        </mxCell>
        <mxCell id="45sW45CUn1RWTs3-UtLl-69" value="&amp;lt;&amp;lt;extend&amp;gt;&amp;gt;" style="text;html=1;align=center;verticalAlign=middle;resizable=0;points=[];autosize=1;strokeColor=none;fillColor=none;" vertex="1" parent="1">
          <mxGeometry x="620" y="75" width="80" height="20" as="geometry" />
        </mxCell>
        <mxCell id="45sW45CUn1RWTs3-UtLl-75" value="&amp;lt;&amp;lt;include&amp;gt;&amp;gt;" style="text;html=1;align=center;verticalAlign=middle;resizable=0;points=[];autosize=1;strokeColor=none;fillColor=none;" vertex="1" parent="1">
          <mxGeometry x="675" y="200" width="80" height="20" as="geometry" />
        </mxCell>
        <mxCell id="45sW45CUn1RWTs3-UtLl-76" value="create new issue" style="ellipse;whiteSpace=wrap;html=1;" vertex="1" parent="1">
          <mxGeometry x="400" y="180" width="90" height="50" as="geometry" />
        </mxCell>
        <mxCell id="45sW45CUn1RWTs3-UtLl-78" value="create new release" style="ellipse;whiteSpace=wrap;html=1;" vertex="1" parent="1">
          <mxGeometry x="280" y="190" width="90" height="50" as="geometry" />
        </mxCell>
        <mxCell id="45sW45CUn1RWTs3-UtLl-79" value="create new milestone" style="ellipse;whiteSpace=wrap;html=1;" vertex="1" parent="1">
          <mxGeometry x="255" y="345" width="90" height="50" as="geometry" />
        </mxCell>
        <mxCell id="45sW45CUn1RWTs3-UtLl-80" value="" style="endArrow=classic;html=1;rounded=0;dashed=1;strokeColor=default;entryX=0;entryY=1;entryDx=0;entryDy=0;exitX=1;exitY=0.5;exitDx=0;exitDy=0;" edge="1" parent="1" source="45sW45CUn1RWTs3-UtLl-79" target="45sW45CUn1RWTs3-UtLl-23">
          <mxGeometry width="50" height="50" relative="1" as="geometry">
            <mxPoint x="380" y="350" as="sourcePoint" />
            <mxPoint x="430" y="300" as="targetPoint" />
          </mxGeometry>
        </mxCell>
        <mxCell id="45sW45CUn1RWTs3-UtLl-81" value="" style="endArrow=classic;html=1;rounded=0;dashed=1;strokeColor=default;exitX=1;exitY=1;exitDx=0;exitDy=0;entryX=0;entryY=0.5;entryDx=0;entryDy=0;" edge="1" parent="1" source="45sW45CUn1RWTs3-UtLl-78" target="45sW45CUn1RWTs3-UtLl-23">
          <mxGeometry width="50" height="50" relative="1" as="geometry">
            <mxPoint x="370" y="310" as="sourcePoint" />
            <mxPoint x="420" y="260" as="targetPoint" />
          </mxGeometry>
        </mxCell>
        <mxCell id="45sW45CUn1RWTs3-UtLl-82" value="" style="endArrow=classic;html=1;rounded=0;dashed=1;strokeColor=default;entryX=0.5;entryY=0;entryDx=0;entryDy=0;exitX=0.5;exitY=1;exitDx=0;exitDy=0;" edge="1" parent="1" source="45sW45CUn1RWTs3-UtLl-76" target="45sW45CUn1RWTs3-UtLl-23">
          <mxGeometry width="50" height="50" relative="1" as="geometry">
            <mxPoint x="410" y="280" as="sourcePoint" />
            <mxPoint x="460" y="230" as="targetPoint" />
          </mxGeometry>
        </mxCell>
        <mxCell id="45sW45CUn1RWTs3-UtLl-83" value="&amp;lt;&amp;lt;extend&amp;gt;&amp;gt;" style="text;html=1;align=center;verticalAlign=middle;resizable=0;points=[];autosize=1;strokeColor=none;fillColor=none;rotation=30;" vertex="1" parent="1">
          <mxGeometry x="260" y="90" width="80" height="20" as="geometry" />
        </mxCell>
        <mxCell id="45sW45CUn1RWTs3-UtLl-84" value="&amp;lt;&amp;lt;include&amp;gt;&amp;gt;" style="text;html=1;align=center;verticalAlign=middle;resizable=0;points=[];autosize=1;strokeColor=none;fillColor=none;" vertex="1" parent="1">
          <mxGeometry x="550" y="280" width="80" height="20" as="geometry" />
        </mxCell>
        <mxCell id="45sW45CUn1RWTs3-UtLl-85" value="HSDB" style="shape=umlActor;verticalLabelPosition=bottom;verticalAlign=top;html=1;outlineConnect=0;" vertex="1" parent="1">
          <mxGeometry x="40" y="160" width="30" height="60" as="geometry" />
        </mxCell>
        <mxCell id="45sW45CUn1RWTs3-UtLl-86" value="editor" style="shape=umlActor;verticalLabelPosition=bottom;verticalAlign=top;html=1;outlineConnect=0;" vertex="1" parent="1">
          <mxGeometry x="50" y="460" width="30" height="60" as="geometry" />
        </mxCell>
        <mxCell id="45sW45CUn1RWTs3-UtLl-91" value="" style="endArrow=none;html=1;rounded=0;strokeColor=default;exitX=0.5;exitY=0;exitDx=0;exitDy=0;exitPerimeter=0;entryX=1;entryY=1;entryDx=0;entryDy=0;entryPerimeter=0;" edge="1" parent="1" source="45sW45CUn1RWTs3-UtLl-86" target="45sW45CUn1RWTs3-UtLl-85">
          <mxGeometry width="50" height="50" relative="1" as="geometry">
            <mxPoint x="50" y="270" as="sourcePoint" />
            <mxPoint x="100" y="220" as="targetPoint" />
          </mxGeometry>
        </mxCell>
        <mxCell id="45sW45CUn1RWTs3-UtLl-92" value="" style="endArrow=none;html=1;rounded=0;strokeColor=default;entryX=0.049;entryY=0.706;entryDx=0;entryDy=0;entryPerimeter=0;exitX=1;exitY=1;exitDx=0;exitDy=0;exitPerimeter=0;" edge="1" parent="1" source="45sW45CUn1RWTs3-UtLl-85" target="45sW45CUn1RWTs3-UtLl-23">
          <mxGeometry width="50" height="50" relative="1" as="geometry">
            <mxPoint x="80" y="260" as="sourcePoint" />
            <mxPoint x="130" y="210" as="targetPoint" />
          </mxGeometry>
        </mxCell>
        <mxCell id="45sW45CUn1RWTs3-UtLl-93" value="" style="endArrow=none;html=1;rounded=0;strokeColor=default;entryX=0;entryY=1;entryDx=0;entryDy=0;" edge="1" parent="1" target="45sW45CUn1RWTs3-UtLl-22">
          <mxGeometry width="50" height="50" relative="1" as="geometry">
            <mxPoint x="70" y="180" as="sourcePoint" />
            <mxPoint x="120" y="130" as="targetPoint" />
          </mxGeometry>
        </mxCell>
        <mxCell id="45sW45CUn1RWTs3-UtLl-95" value="" style="endArrow=none;html=1;rounded=0;strokeColor=default;exitX=1;exitY=1;exitDx=0;exitDy=0;exitPerimeter=0;entryX=0;entryY=0;entryDx=0;entryDy=0;" edge="1" parent="1" source="45sW45CUn1RWTs3-UtLl-86" target="45sW45CUn1RWTs3-UtLl-24">
          <mxGeometry width="50" height="50" relative="1" as="geometry">
            <mxPoint x="130" y="570" as="sourcePoint" />
            <mxPoint x="180" y="520" as="targetPoint" />
          </mxGeometry>
        </mxCell>
        <mxCell id="45sW45CUn1RWTs3-UtLl-101" value="&amp;lt;&amp;lt;extend&amp;gt;&amp;gt;" style="text;html=1;align=center;verticalAlign=middle;resizable=0;points=[];autosize=1;strokeColor=none;fillColor=none;rotation=45;" vertex="1" parent="1">
          <mxGeometry x="340" y="60" width="80" height="20" as="geometry" />
        </mxCell>
        <mxCell id="45sW45CUn1RWTs3-UtLl-103" value="&amp;lt;&amp;lt;extend&amp;gt;&amp;gt;" style="text;html=1;align=center;verticalAlign=middle;resizable=0;points=[];autosize=1;strokeColor=none;fillColor=none;rotation=-15;" vertex="1" parent="1">
          <mxGeometry x="340" y="340" width="80" height="20" as="geometry" />
        </mxCell>
        <mxCell id="45sW45CUn1RWTs3-UtLl-104" value="&amp;lt;&amp;lt;extend&amp;gt;&amp;gt;" style="text;html=1;align=center;verticalAlign=middle;resizable=0;points=[];autosize=1;strokeColor=none;fillColor=none;rotation=45;" vertex="1" parent="1">
          <mxGeometry x="350" y="250" width="80" height="20" as="geometry" />
        </mxCell>
        <mxCell id="45sW45CUn1RWTs3-UtLl-105" value="&amp;lt;&amp;lt;extend&amp;gt;&amp;gt;" style="text;html=1;align=center;verticalAlign=middle;resizable=0;points=[];autosize=1;strokeColor=none;fillColor=none;rotation=30;" vertex="1" parent="1">
          <mxGeometry x="450" y="240" width="80" height="20" as="geometry" />
        </mxCell>
        <mxCell id="45sW45CUn1RWTs3-UtLl-106" value="" style="endArrow=classic;html=1;rounded=0;strokeColor=default;exitX=1;exitY=0.5;exitDx=0;exitDy=0;entryX=0;entryY=1;entryDx=0;entryDy=0;dashed=1;" edge="1" parent="1" source="45sW45CUn1RWTs3-UtLl-60" target="45sW45CUn1RWTs3-UtLl-24">
          <mxGeometry width="50" height="50" relative="1" as="geometry">
            <mxPoint x="360" y="560" as="sourcePoint" />
            <mxPoint x="410" y="510" as="targetPoint" />
          </mxGeometry>
        </mxCell>
        <mxCell id="45sW45CUn1RWTs3-UtLl-107" value="" style="endArrow=classic;html=1;rounded=0;strokeColor=default;entryX=0.5;entryY=1;entryDx=0;entryDy=0;dashed=1;exitX=0.5;exitY=0;exitDx=0;exitDy=0;" edge="1" parent="1" source="45sW45CUn1RWTs3-UtLl-59" target="45sW45CUn1RWTs3-UtLl-24">
          <mxGeometry width="50" height="50" relative="1" as="geometry">
            <mxPoint x="450" y="590" as="sourcePoint" />
            <mxPoint x="500" y="540" as="targetPoint" />
          </mxGeometry>
        </mxCell>
        <mxCell id="45sW45CUn1RWTs3-UtLl-108" value="&amp;lt;&amp;lt;extend&amp;gt;&amp;gt;" style="text;html=1;align=center;verticalAlign=middle;resizable=0;points=[];autosize=1;strokeColor=none;fillColor=none;" vertex="1" parent="1">
          <mxGeometry x="345" y="520" width="80" height="20" as="geometry" />
        </mxCell>
        <mxCell id="45sW45CUn1RWTs3-UtLl-109" value="&amp;lt;&amp;lt;extend&amp;gt;&amp;gt;" style="text;html=1;align=center;verticalAlign=middle;resizable=0;points=[];autosize=1;strokeColor=none;fillColor=none;rotation=-15;" vertex="1" parent="1">
          <mxGeometry x="335" y="565" width="80" height="20" as="geometry" />
        </mxCell>
        <mxCell id="45sW45CUn1RWTs3-UtLl-111" value="submit article" style="ellipse;whiteSpace=wrap;html=1;" vertex="1" parent="1">
          <mxGeometry x="1010" y="550" width="90" height="50" as="geometry" />
        </mxCell>
        <mxCell id="45sW45CUn1RWTs3-UtLl-121" value="" style="endArrow=classic;html=1;rounded=0;dashed=1;strokeColor=default;exitX=0.5;exitY=0;exitDx=0;exitDy=0;" edge="1" parent="1" source="45sW45CUn1RWTs3-UtLl-56" target="45sW45CUn1RWTs3-UtLl-21">
          <mxGeometry width="50" height="50" relative="1" as="geometry">
            <mxPoint x="590" y="550" as="sourcePoint" />
            <mxPoint x="640" y="500" as="targetPoint" />
          </mxGeometry>
        </mxCell>
        <mxCell id="45sW45CUn1RWTs3-UtLl-122" value="" style="endArrow=classic;html=1;rounded=0;dashed=1;strokeColor=default;entryX=0.5;entryY=1;entryDx=0;entryDy=0;exitX=0.5;exitY=0;exitDx=0;exitDy=0;" edge="1" parent="1" source="45sW45CUn1RWTs3-UtLl-55" target="45sW45CUn1RWTs3-UtLl-21">
          <mxGeometry width="50" height="50" relative="1" as="geometry">
            <mxPoint x="690" y="570" as="sourcePoint" />
            <mxPoint x="740" y="520" as="targetPoint" />
          </mxGeometry>
        </mxCell>
        <mxCell id="45sW45CUn1RWTs3-UtLl-123" value="" style="endArrow=classic;html=1;rounded=0;dashed=1;strokeColor=default;exitX=0.5;exitY=0;exitDx=0;exitDy=0;" edge="1" parent="1" source="45sW45CUn1RWTs3-UtLl-57" target="45sW45CUn1RWTs3-UtLl-21">
          <mxGeometry width="50" height="50" relative="1" as="geometry">
            <mxPoint x="800" y="555" as="sourcePoint" />
            <mxPoint x="850" y="505" as="targetPoint" />
          </mxGeometry>
        </mxCell>
        <mxCell id="45sW45CUn1RWTs3-UtLl-124" value="" style="endArrow=classic;html=1;rounded=0;dashed=1;strokeColor=default;exitX=0;exitY=0;exitDx=0;exitDy=0;" edge="1" parent="1" source="45sW45CUn1RWTs3-UtLl-54" target="45sW45CUn1RWTs3-UtLl-21">
          <mxGeometry width="50" height="50" relative="1" as="geometry">
            <mxPoint x="900" y="510" as="sourcePoint" />
            <mxPoint x="950" y="460" as="targetPoint" />
          </mxGeometry>
        </mxCell>
        <mxCell id="45sW45CUn1RWTs3-UtLl-125" value="" style="endArrow=classic;html=1;rounded=0;dashed=1;strokeColor=default;entryX=1;entryY=1;entryDx=0;entryDy=0;exitX=0;exitY=0;exitDx=0;exitDy=0;" edge="1" parent="1" source="45sW45CUn1RWTs3-UtLl-111" target="45sW45CUn1RWTs3-UtLl-21">
          <mxGeometry width="50" height="50" relative="1" as="geometry">
            <mxPoint x="990" y="500" as="sourcePoint" />
            <mxPoint x="1040" y="450" as="targetPoint" />
          </mxGeometry>
        </mxCell>
        <mxCell id="45sW45CUn1RWTs3-UtLl-127" value="&amp;lt;&amp;lt;include&amp;gt;&amp;gt;" style="text;html=1;align=center;verticalAlign=middle;resizable=0;points=[];autosize=1;strokeColor=none;fillColor=none;rotation=45;" vertex="1" parent="1">
          <mxGeometry x="890" y="440" width="80" height="20" as="geometry" />
        </mxCell>
        <mxCell id="45sW45CUn1RWTs3-UtLl-128" value="&amp;lt;&amp;lt;include&amp;gt;&amp;gt;" style="text;html=1;align=center;verticalAlign=middle;resizable=0;points=[];autosize=1;strokeColor=none;fillColor=none;rotation=50;" vertex="1" parent="1">
          <mxGeometry x="810" y="480" width="80" height="20" as="geometry" />
        </mxCell>
        <mxCell id="45sW45CUn1RWTs3-UtLl-129" value="&amp;lt;&amp;lt;include&amp;gt;&amp;gt;" style="text;html=1;align=center;verticalAlign=middle;resizable=0;points=[];autosize=1;strokeColor=none;fillColor=none;rotation=75;" vertex="1" parent="1">
          <mxGeometry x="755" y="500" width="80" height="20" as="geometry" />
        </mxCell>
        <mxCell id="45sW45CUn1RWTs3-UtLl-130" value="&amp;lt;&amp;lt;include&amp;gt;&amp;gt;" style="text;html=1;align=center;verticalAlign=middle;resizable=0;points=[];autosize=1;strokeColor=none;fillColor=none;rotation=-75;" vertex="1" parent="1">
          <mxGeometry x="650" y="510" width="80" height="20" as="geometry" />
        </mxCell>
        <mxCell id="45sW45CUn1RWTs3-UtLl-131" value="&amp;lt;&amp;lt;include&amp;gt;&amp;gt;" style="text;html=1;align=center;verticalAlign=middle;resizable=0;points=[];autosize=1;strokeColor=none;fillColor=none;rotation=-60;" vertex="1" parent="1">
          <mxGeometry x="570" y="490" width="80" height="20" as="geometry" />
        </mxCell>
        <mxCell id="45sW45CUn1RWTs3-UtLl-132" value="" style="endArrow=none;html=1;rounded=0;strokeColor=default;exitX=1;exitY=0.5;exitDx=0;exitDy=0;entryX=0;entryY=0.5;entryDx=0;entryDy=0;" edge="1" parent="1" source="45sW45CUn1RWTs3-UtLl-21" target="45sW45CUn1RWTs3-UtLl-25">
          <mxGeometry width="50" height="50" relative="1" as="geometry">
            <mxPoint x="790" y="320" as="sourcePoint" />
            <mxPoint x="840" y="270" as="targetPoint" />
          </mxGeometry>
        </mxCell>
        <mxCell id="45sW45CUn1RWTs3-UtLl-134" value="author and reviewer" style="shape=umlActor;verticalLabelPosition=bottom;verticalAlign=top;html=1;outlineConnect=0;" vertex="1" parent="1">
          <mxGeometry x="800" y="720" width="30" height="60" as="geometry" />
        </mxCell>
        <mxCell id="45sW45CUn1RWTs3-UtLl-136" value="reader" style="shape=umlActor;verticalLabelPosition=bottom;verticalAlign=top;html=1;outlineConnect=0;" vertex="1" parent="1">
          <mxGeometry x="570" y="710" width="30" height="60" as="geometry" />
        </mxCell>
        <mxCell id="45sW45CUn1RWTs3-UtLl-138" value="" style="endArrow=classic;html=1;rounded=0;strokeColor=default;dashed=1;entryX=0.626;entryY=1.009;entryDx=0;entryDy=0;entryPerimeter=0;exitX=0.5;exitY=0;exitDx=0;exitDy=0;" edge="1" parent="1" source="45sW45CUn1RWTs3-UtLl-36" target="45sW45CUn1RWTs3-UtLl-24">
          <mxGeometry width="50" height="50" relative="1" as="geometry">
            <mxPoint x="450" y="620" as="sourcePoint" />
            <mxPoint x="500" y="570" as="targetPoint" />
          </mxGeometry>
        </mxCell>
        <mxCell id="45sW45CUn1RWTs3-UtLl-139" value="&amp;lt;&amp;lt;extend&amp;gt;&amp;gt;" style="text;html=1;align=center;verticalAlign=middle;resizable=0;points=[];autosize=1;strokeColor=none;fillColor=none;rotation=-60;" vertex="1" parent="1">
          <mxGeometry x="400" y="590" width="80" height="20" as="geometry" />
        </mxCell>
        <mxCell id="45sW45CUn1RWTs3-UtLl-142" value="" style="endArrow=none;html=1;rounded=0;strokeColor=default;entryX=1;entryY=1;entryDx=0;entryDy=0;exitX=0;exitY=0.3333333333333333;exitDx=0;exitDy=0;exitPerimeter=0;" edge="1" parent="1" source="45sW45CUn1RWTs3-UtLl-136" target="45sW45CUn1RWTs3-UtLl-36">
          <mxGeometry width="50" height="50" relative="1" as="geometry">
            <mxPoint x="490" y="760" as="sourcePoint" />
            <mxPoint x="540" y="710" as="targetPoint" />
          </mxGeometry>
        </mxCell>
        <mxCell id="45sW45CUn1RWTs3-UtLl-144" value="" style="endArrow=none;html=1;rounded=0;strokeColor=default;entryX=0.5;entryY=1;entryDx=0;entryDy=0;exitX=0;exitY=1;exitDx=0;exitDy=0;exitPerimeter=0;" edge="1" parent="1" source="45sW45CUn1RWTs3-UtLl-134" target="45sW45CUn1RWTs3-UtLl-56">
          <mxGeometry width="50" height="50" relative="1" as="geometry">
            <mxPoint x="620" y="740" as="sourcePoint" />
            <mxPoint x="670" y="690" as="targetPoint" />
            <Array as="points">
              <mxPoint x="670" y="720" />
            </Array>
          </mxGeometry>
        </mxCell>
        <mxCell id="45sW45CUn1RWTs3-UtLl-145" value="" style="endArrow=none;html=1;rounded=0;strokeColor=default;entryX=1;entryY=1;entryDx=0;entryDy=0;" edge="1" parent="1" target="45sW45CUn1RWTs3-UtLl-55">
          <mxGeometry width="50" height="50" relative="1" as="geometry">
            <mxPoint x="810" y="720" as="sourcePoint" />
            <mxPoint x="720" y="730" as="targetPoint" />
            <Array as="points">
              <mxPoint x="810" y="720" />
            </Array>
          </mxGeometry>
        </mxCell>
        <mxCell id="45sW45CUn1RWTs3-UtLl-147" value="" style="endArrow=none;html=1;rounded=0;strokeColor=default;entryX=0.5;entryY=1;entryDx=0;entryDy=0;exitX=0.75;exitY=0.1;exitDx=0;exitDy=0;exitPerimeter=0;" edge="1" parent="1" source="45sW45CUn1RWTs3-UtLl-134" target="45sW45CUn1RWTs3-UtLl-57">
          <mxGeometry width="50" height="50" relative="1" as="geometry">
            <mxPoint x="860" y="750" as="sourcePoint" />
            <mxPoint x="910" y="700" as="targetPoint" />
          </mxGeometry>
        </mxCell>
        <mxCell id="45sW45CUn1RWTs3-UtLl-148" value="" style="endArrow=none;html=1;rounded=0;strokeColor=default;exitX=0.75;exitY=0.1;exitDx=0;exitDy=0;exitPerimeter=0;entryX=0.5;entryY=1;entryDx=0;entryDy=0;" edge="1" parent="1" source="45sW45CUn1RWTs3-UtLl-134" target="45sW45CUn1RWTs3-UtLl-54">
          <mxGeometry width="50" height="50" relative="1" as="geometry">
            <mxPoint x="900" y="750" as="sourcePoint" />
            <mxPoint x="950" y="700" as="targetPoint" />
          </mxGeometry>
        </mxCell>
        <mxCell id="45sW45CUn1RWTs3-UtLl-149" value="" style="endArrow=none;html=1;rounded=0;strokeColor=default;exitX=0.75;exitY=0.1;exitDx=0;exitDy=0;exitPerimeter=0;entryX=1;entryY=1;entryDx=0;entryDy=0;" edge="1" parent="1" source="45sW45CUn1RWTs3-UtLl-134" target="45sW45CUn1RWTs3-UtLl-111">
          <mxGeometry width="50" height="50" relative="1" as="geometry">
            <mxPoint x="890" y="760" as="sourcePoint" />
            <mxPoint x="940" y="710" as="targetPoint" />
          </mxGeometry>
        </mxCell>
      </root>
    </mxGraphModel>
  </diagram>
</mxfile>
